<svg width="312" height="78" viewBox="0 0 312 78" fill="none" xmlns="http://www.w3.org/2000/svg">
<path d="M127.661 34.5648L131.662 26.5222H138.377L131.568 38.5261L138.551 50.8101H131.815L127.754 42.5941L123.686 50.8101H116.97L123.953 38.5261L117.144 26.5222H123.866L127.661 34.5648ZM149.047 42.1606H145.866V50.7367H140.045V26.5222H149.581C152.495 26.5222 154.703 27.1424 156.296 28.4695C157.103 29.1101 157.748 29.9318 158.178 30.868C158.607 31.8042 158.811 32.8285 158.771 33.8579C158.821 35.3431 158.454 36.8125 157.71 38.0993C156.931 39.2961 155.828 40.2467 154.529 40.8402L159.564 50.6433V50.9101H153.289L149.047 42.1606ZM145.953 37.6592H149.668C150.12 37.7067 150.578 37.6517 151.006 37.4981C151.434 37.3446 151.823 37.0965 152.142 36.7722C152.73 36.0841 153.043 35.2031 153.022 34.2981C153.054 33.8472 152.993 33.3945 152.841 32.9687C152.69 32.5428 152.452 32.153 152.142 31.8239C151.817 31.5077 151.428 31.2654 151.001 31.1135C150.574 30.9615 150.119 30.9036 149.668 30.9437H145.953V37.6592ZM167.874 42.514V50.7367H162.052V26.5222H171.775C173.484 26.4872 175.178 26.8502 176.723 27.5826C178.077 28.2353 179.229 29.2423 180.057 30.4968C180.857 31.7978 181.256 33.3054 181.205 34.8316C181.24 35.9075 181.028 36.9772 180.584 37.9578C180.14 38.9385 179.476 39.8038 178.644 40.4867C176.963 41.9005 174.642 42.6074 171.661 42.6074H167.867L167.874 42.514ZM167.874 38.0126H171.668C172.135 38.0598 172.606 38.0049 173.049 37.8517C173.493 37.6986 173.898 37.4508 174.236 37.1256C174.551 36.8181 174.793 36.4443 174.945 36.0313C175.098 35.6183 175.156 35.1766 175.116 34.7382C175.176 33.7486 174.862 32.7725 174.236 32.004C173.93 31.6519 173.549 31.3737 173.12 31.19C172.692 31.0064 172.227 30.9221 171.761 30.9437H167.874V38.0126ZM197.883 46.3153H208.067V50.8234H191.995V26.5222H197.83V46.3153H197.883ZM225.279 40.4867H216.116V46.3153H226.986V50.8234H210.314V26.5222H227.106V31.0303H216.236V36.152H225.339L225.279 40.4867ZM228.987 50.7367V26.5222H236.849C238.91 26.5005 240.941 27.0129 242.744 28.0094C244.457 28.9713 245.849 30.4163 246.746 32.164C247.707 33.9918 248.224 36.0209 248.253 38.086V39.233C248.295 41.3209 247.809 43.3856 246.839 45.2349C245.899 46.984 244.493 48.4384 242.777 49.4367C241.06 50.4349 239.101 50.938 237.116 50.8901H229.02L228.987 50.7367ZM234.822 31.0303V46.3153H236.822C237.57 46.3567 238.316 46.2177 238.999 45.9102C239.681 45.6026 240.28 45.1354 240.744 44.548C241.633 43.3165 242.077 41.5493 242.077 39.2463V38.186C242.077 35.7985 241.633 34.0313 240.744 32.8843C240.268 32.2892 239.656 31.8178 238.96 31.5101C238.263 31.2024 237.502 31.0676 236.742 31.117H234.802L234.822 31.0303ZM270.64 47.8158C269.525 48.9315 268.15 49.752 266.639 50.2032C264.79 50.8265 262.848 51.1266 260.897 51.0901C257.716 51.0901 255.148 50.1165 253.294 48.1692C251.44 46.2219 250.38 43.501 250.2 40.0399V37.9192C250.167 35.7656 250.59 33.6294 251.44 31.6505C252.225 29.9477 253.482 28.5057 255.062 27.4959C256.722 26.5237 258.62 26.034 260.543 26.0821C263.544 26.0821 265.932 26.789 267.612 28.2028C269.293 29.6166 270.28 31.6505 270.527 34.3848H264.871C264.795 33.2837 264.321 32.2479 263.538 31.4705C262.753 30.836 261.757 30.5216 260.75 30.5902C260.064 30.5735 259.385 30.7356 258.781 31.0606C258.176 31.3857 257.667 31.8625 257.302 32.4441C256.392 34.0689 255.964 35.9197 256.069 37.7792V39.2797C256.069 41.6671 256.509 43.521 257.302 44.7614C258.096 46.0018 259.423 46.6154 261.19 46.6154C262.431 46.7011 263.66 46.3233 264.638 45.555V41.7538H260.577V37.7525H270.473V47.8158H270.64ZM288.759 40.4801H279.57V46.3086H290.433V50.8167H273.761V26.5222H290.553V31.0303H279.683V36.152H288.873V40.4867L288.759 40.4801ZM301.57 42.1539H298.389V50.7367H292.467V26.5222H302.01C304.931 26.5222 307.138 27.1424 308.726 28.4695C309.534 29.109 310.179 29.9305 310.609 30.867C311.039 31.8035 311.241 32.8283 311.2 33.8579C311.25 35.3431 310.883 36.8125 310.139 38.0993C309.36 39.2961 308.257 40.2467 306.958 40.8402L312 50.6433V50.9101H305.725L301.57 42.1539ZM298.389 37.6525H302.097C302.549 37.7001 303.007 37.645 303.435 37.4915C303.863 37.3379 304.252 37.0898 304.571 36.7655C305.15 36.0762 305.456 35.1982 305.431 34.2981C305.462 33.8473 305.4 33.3951 305.248 32.9695C305.097 32.5439 304.859 32.1539 304.551 31.8239C304.229 31.5104 303.843 31.2696 303.419 31.1178C302.996 30.9659 302.545 30.9065 302.097 30.9437H298.382L298.389 37.6525Z" fill="white"/>
<path d="M23.6076 4.80156H25.4749V5.91262e-06H23.6076C21.6279 -0.00174838 19.6673 0.386891 17.8379 1.14368C16.0086 1.90048 14.3464 3.01057 12.9465 4.41044C11.5467 5.81031 10.4366 7.47248 9.67977 9.30184C8.92297 11.1312 8.53433 13.0918 8.53609 15.0715V26.0084C8.5401 28.3242 7.65813 30.5537 6.07099 32.2401C4.48384 33.9264 2.31176 34.9418 0 35.078L0.133376 37.4788L0 39.8795C2.31176 40.0158 4.48384 41.0311 6.07099 42.7174C7.65813 44.4038 8.5401 46.6334 8.53609 48.9491V61.5532C8.529 65.7356 10.1828 69.7497 13.1339 72.7133C16.085 75.677 20.0921 77.3477 24.2745 77.3583V72.5568C21.3744 72.555 18.5936 71.4021 16.5429 69.3515C14.4922 67.3008 13.3394 64.52 13.3376 61.6199V48.9491C13.3397 46.687 12.7876 44.4588 11.7297 42.4593C10.6718 40.4598 9.1403 38.7498 7.26901 37.4788C9.13497 36.2024 10.6624 34.4912 11.7197 32.4929C12.7769 30.4946 13.3322 28.2691 13.3376 26.0084V15.0715C13.3499 12.3516 14.4359 9.74647 16.3592 7.82313C18.2826 5.89979 20.8876 4.81384 23.6076 4.80156Z" fill="white"/>
<path d="M79.0924 4.80155H77.2251V0H79.0924C83.0802 0.0105997 86.9007 1.60402 89.7143 4.4301C92.5278 7.25618 94.1043 11.0837 94.0972 15.0715V26.0084C94.0932 28.3242 94.9752 30.5537 96.5623 32.2401C98.1495 33.9264 100.322 34.9418 102.633 35.078L102.5 37.4788L102.633 39.8795C100.322 40.0158 98.1495 41.0311 96.5623 42.7174C94.9752 44.4038 94.0932 46.6334 94.0972 48.9491V61.5532C94.1043 65.7356 92.4505 69.7497 89.4994 72.7133C86.5483 75.677 82.5412 77.3477 78.3588 77.3583V72.5567C81.2589 72.555 84.0397 71.4021 86.0904 69.3515C88.141 67.3008 89.2939 64.52 89.2957 61.6199V48.9491C89.2936 46.687 89.8457 44.4588 90.9036 42.4593C91.9615 40.4598 93.493 38.7498 95.3643 37.4788C93.4983 36.2024 91.9709 34.4912 90.9136 32.4929C89.8564 30.4946 89.3011 28.2691 89.2957 26.0084V15.0715C89.3027 13.7265 89.044 12.3933 88.5346 11.1485C88.0251 9.90366 87.2749 8.77168 86.3269 7.81749C85.3789 6.86331 84.2518 6.1057 83.0104 5.58815C81.7689 5.0706 80.4374 4.80329 79.0924 4.80155Z" fill="white"/>
<path d="M68.8224 19.3395H75.9581L61.0866 33.2773C58.4184 35.6916 54.9485 37.0285 51.3501 37.0285C47.7518 37.0285 44.2818 35.6916 41.6137 33.2773L26.7422 19.3395H33.8778L45.1481 29.8762C46.8311 31.4208 49.0324 32.2779 51.3168 32.2779C53.6012 32.2779 55.8024 31.4208 57.4854 29.8762L68.8224 19.3395Z" fill="white"/>
<path d="M33.8109 58.0189H26.6753L41.6134 44.0144C44.2669 41.5704 47.7424 40.2136 51.3499 40.2136C54.9574 40.2136 58.433 41.5704 61.0864 44.0144L76.0245 58.0189H68.8889L57.5519 47.3488C55.8689 45.8042 53.6676 44.9472 51.3833 44.9472C49.0989 44.9472 46.8976 45.8042 45.2146 47.3488L33.8109 58.0189Z" fill="white"/>
</svg>
